<?xml version="1.0" encoding="UTF-8"?>
<svg id="Layer_2" data-name="Layer 2" xmlns="http://www.w3.org/2000/svg" viewBox="0 0 453.75 453.31">
  <defs>
    <style>
      .cls-1 {
        fill: #fefefd;
      }

      .cls-1, .cls-2, .cls-3, .cls-4, .cls-5, .cls-6, .cls-7, .cls-8, .cls-9, .cls-10, .cls-11, .cls-12, .cls-13, .cls-14, .cls-15, .cls-16, .cls-17, .cls-18, .cls-19, .cls-20, .cls-21, .cls-22, .cls-23, .cls-24, .cls-25, .cls-26, .cls-27, .cls-28, .cls-29, .cls-30, .cls-31 {
        stroke-width: 0px;
      }

      .cls-2 {
        fill: #a6abaf;
      }

      .cls-3 {
        fill: #cbcfd1;
      }

      .cls-4 {
        fill: #fbfcfb;
      }

      .cls-5 {
        fill: #bfc4c7;
      }

      .cls-6 {
        fill: #2e404f;
      }

      .cls-7 {
        fill: #fcfcfc;
      }

      .cls-8 {
        fill: #b1b2b2;
      }

      .cls-9 {
        fill: #fdfefd;
      }

      .cls-10 {
        fill: #d8dcde;
      }

      .cls-11 {
        fill: #a5a9ad;
      }

      .cls-12 {
        fill: #979da2;
      }

      .cls-13 {
        fill: #fafbfb;
      }

      .cls-14 {
        fill: #69727b;
      }

      .cls-15 {
        fill: #b1cfd2;
      }

      .cls-16 {
        fill: #1b4b56;
      }

      .cls-17 {
        fill: #a5aaaf;
      }

      .cls-18 {
        fill: #a0a4a8;
      }

      .cls-19 {
        fill: #e6e9ea;
      }

      .cls-20 {
        fill: #cccfd1;
      }

      .cls-21 {
        fill: #e4e7e8;
      }

      .cls-22 {
        fill: #d3e1e3;
      }

      .cls-23 {
        fill: #969ca2;
      }

      .cls-24 {
        fill: #b1b2b3;
      }

      .cls-25 {
        fill: #b1b4b7;
      }

      .cls-26 {
        fill: #51767e;
      }

      .cls-27 {
        fill: #b1b5b9;
      }

      .cls-28 {
        fill: #5a7079;
      }

      .cls-29 {
        fill: #aaaeb2;
      }

      .cls-30 {
        fill: #cdd1d3;
      }

      .cls-31 {
        fill: #fbfcfc;
      }
    </style>
  </defs>
  <g id="Layer_1-2" data-name="Layer 1">
    <g>
      <path class="cls-6" d="M227.06.04c121.54-2.18,227.73,100.62,226.68,228.36-1.02,123.9-104.35,226.12-229.06,224.9C103.19,452.11,4.12,353.04.13,234.49-4.28,103.33,103.66-2.34,227.06.04Z"/>
      <path class="cls-1" d="M226.56,172.09c1.68,5.12,3.36,10.25,5.05,15.37-5.15-4.83-8.61-10.62-10.94-17.12-6.19-17.25-2.54-33.44,5.42-49.11,4.01-7.89,8.98-15.16,14.71-21.94,9.17-10.85,14.28-23.14,12.83-37.66-1.16-11.59-6-17.46-17.09-20.51-3.33-1.02-6.76-.15-10.12-.5-1.06-.11-2.82.85-2.87-1.42,4.37-2.34,9.05-3.2,13.96-3,17.2,2.78,28.4,16.61,29.37,35.28,1.11,21.23-8.01,38.2-21.11,53.72-2.37,2.28-4.95,4.38-6.7,7.25-3.56,3.63-6.91,7.43-9.06,12.13-1.85,2.38-2.37,5.29-3.28,8.06-1.78,6.47-1.41,12.96-.16,19.46Z"/>
      <path class="cls-1" d="M192.54,207.11c-17.18,4.54-32.68.81-46.47-9.97-12.33-9.64-20.81-22.32-27.39-36.37-6.16-13.17-15.11-23.51-29.41-28.1-13.06-4.19-22.27-.16-28.37,12.26-1.3,2.65-2.27,5.47-3.85,9.32-.86-6.75.11-12.02,2.68-17.05,4.94-11.97,23.14-17.9,37.16-14.52,18.83,4.54,31.89,16.47,41.26,32.91,3.96,6.94,7.23,14.17,10.01,21.69,4.69,12.67,13.49,21.4,26.42,25.77,2.65.67,5.3,1.33,7.96,2,2.47,1.23,5.11.23,7.65.58.99.13,2.49-.47,2.35,1.48Z"/>
      <path class="cls-1" d="M197.59,246.16c-7.89,20.96-23.86,31.52-45.26,34.92-11.92,1.89-23.79,1.23-35.73-.52-13.58-1.99-26.56-.04-37.76,8.78-11.25,8.86-12.99,18.67-5.77,31.07,1.09,1.87,3.46,3.37,2.36,6.48-4.1-3.02-7.6-6.32-9.93-10.75-6.61-12.9-2.76-24.48,5.57-34.63,10.69-13.03,25.27-19.01,41.97-19.8,11.49-.54,22.89.24,34.03,3.45,7.16,2.07,14.41,1.99,21.67.53,4.58-1.16,8.86-3.02,12.83-5.59,6.14-3.88,10.57-9.41,14.72-15.21,1.04-.19,1.55.15,1.31,1.27Z"/>
      <path class="cls-1" d="M396.6,315.14c-.74,3.88-2.01,7.56-4.17,10.9-9.61,12.19-26.72,15.68-41.9,9.02-19.42-8.53-30.4-24.14-37.33-43.34-1.69-4.7-3.14-9.47-4.46-14.29-2.78-12.69-9.76-22.2-21.38-28.21-4.42-1.93-8.79-3.99-13.73-4.25-1.25-1.1-3.41.62-4.37-1.4,2.72-3.91,6.83-2.08,10.04-1.75,5.84.6,11.73,1.73,17.19,4.25,13.08,5.1,21.52,15.26,28.75,26.63,4.92,7.75,8.45,16.16,11.51,24.83,4.98,14.07,13.5,25.13,27.96,30.64,10.23,3.89,17.97,1.79,24.87-6.61,2.56-3.11,4.49-6.58,6.01-10.3,2.33.79,1.14,2.47.98,3.89Z"/>
      <path class="cls-1" d="M244.56,411.07c-3.73,2.02-7.69,3.1-11.95,3.05-6.24.46-11.76-1.55-16.48-5.41-11.72-9.61-15.98-22.27-15.23-37.17,1.03-20.56,11.52-36.34,24.73-50.88,1.67-1.84,3.66-3.4,5-5.54,4.21-4.62,7.1-9.99,9-15.91.8-1.44.98-3.02,1.01-4.63.06-.46.17-.91.3-1.36.73-2.77.88-5.55.19-8.35-.11-.73-.09-1.46-.09-2.2-.55-3.6-.98-7.24-2.95-10.43-.74-1.29-1.72-2.47-1.6-4.09-.57-1.18-.79-2.17,1.08-2.09,13.36,16.71,14.3,35.1,7.15,54.46-4.13,11.19-10.29,21.24-17.87,30.44-6.82,8.27-11.73,17.49-12.55,28.32-1.7,22.49,7.54,30.36,25.14,30.66,1.84-.21,3.95-1.62,5.13,1.14Z"/>
      <path class="cls-9" d="M407.72,155.97c3.17,3.77,4.37,8.28,4.83,13.06.22,10.57-3.57,19.64-11.5,26.4-11.85,10.1-25.98,13.39-41.38,12.33-14.07-.97-26.91-5.77-39.31-12.01-9.56-4.81-19.47-6.04-29.86-3.61-7.42,2.23-14.1,5.77-19.7,11.2-1.95.11-1.91-1.01-1.45-2.37l-.03.04c1.54-1.58,2.91-3.31,4.6-4.74,11.65-12.1,26.1-17.05,42.61-16.59,12.16.34,23.73,3.33,35.06,7.69,14.84,5.71,29.61,6.37,44.2-1.33,7.34-3.87,14-13.04,10.84-23.17-.48-1.53-.59-3.24-.83-4.87-.17-1.14.13-2.42,1.91-2.01Z"/>
      <path class="cls-31" d="M232.85,216.69c-3.88-6.41-7.58-12.47-11.23-18.56-10.54-17.56-21.05-35.12-31.58-52.68-.43-.71-.82-1.45-1.26-2.15-.86-1.37-.73-2.33.81-3.24,1.7-1,2.36-.08,3.1,1.16,3.76,6.29,7.55,12.55,11.31,18.84,9.58,15.98,19.15,31.97,28.73,47.97,2.23-.98,2.92-2.98,4-4.57,13.17-19.43,26.27-38.91,39.47-58.33.94-1.38,1.47-4.45,4.29-2.47,2.78,1.94.14,3.54-.79,4.93-14.83,22.13-29.74,44.2-44.65,66.28-.55.81-1.2,1.55-2.2,2.82Z"/>
      <path class="cls-31" d="M231.82,242.81c-14.04,20.79-27.92,41.33-41.8,61.88-.47.69-.94,1.38-1.4,2.07-.93,1.41-1.67,3.01-3.82,1.38-1.88-1.42-.74-2.51.1-3.75,4-5.93,7.99-11.88,11.99-17.82,11.17-16.56,22.35-33.12,33.53-49.67.53-.78,1.12-1.52,2.11-2.84,2.65,4.38,5.04,8.32,7.4,12.27,11.81,19.69,23.66,39.37,35.36,59.13.84,1.42,4,3.38.51,5.21-3.22,1.68-3.43-1.78-4.35-3.29-12.16-20.07-24.18-40.22-36.27-60.34-.84-1.39-1.32-3.08-3.36-4.24Z"/>
      <path class="cls-4" d="M285,230.66c12.98,0,25.97-.02,38.95.02,1.7,0,3.99-.61,3.9,2.37-.09,3.13-2.56,2.03-4.1,2.02-23.31-.15-46.61-.4-69.92-.56-1.38,0-3.33-.93-4.09.71-.67,1.44.9,2.7,1.64,3.94,11.85,19.86,23.76,39.69,35.56,59.58.83,1.41,3.49,3.09.58,4.94-2.9,1.84-3.33-1.17-4.2-2.62-13.4-22.23-26.69-44.53-40.11-66.74-1.94-3.21-2.05-4.36,2.32-4.29,13.15.21,26.3.08,39.46.08,0,.19,0,.39,0,.58Z"/>
      <path class="cls-13" d="M223.56,230.86c-4.98,7.41-9.95,14.82-14.94,22.22-10.04,14.9-20.09,29.8-30.13,44.69-.19.28-.34.58-.57.82-1.13,1.14-1.47,3.81-4.07,2.13-2.64-1.7-.53-3.18.35-4.5,8.43-12.58,16.93-25.1,25.39-37.65,5.27-7.82,10.52-15.66,16.38-24.38-2.51,0-4.08.01-5.65,0-22.8-.21-45.59-.4-68.39-.69-1.66-.02-4.53,1.23-4.44-2.18.09-3.35,2.92-2.04,4.59-2.05,26.95-.08,53.89-.05,80.84-.05.22.55.43,1.1.65,1.66Z"/>
      <path class="cls-7" d="M216.34,215.6c-3.6-6.04-7.13-12-10.69-17.95-9.15-15.29-18.32-30.56-27.43-45.86-.91-1.53-3.12-3.29,0-4.85,2.78-1.38,2.96,1.35,3.74,2.66,13.4,22.25,26.75,44.53,40.05,66.84.7,1.18,2.41,2.38,1.26,3.92-.84,1.13-2.5.47-3.77.46-25.82-.18-51.64-.38-77.45-.68-1.65-.02-4.53,1.28-4.48-2.15.05-3.3,2.82-2.18,4.54-2.17,22.82.09,45.64.29,68.47.41,1.76,0,3.6.48,5.76-.63Z"/>
      <path class="cls-31" d="M242.32,221.07c-.23-2.35,1.09-3.34,1.88-4.51,14.39-21.39,28.8-42.76,43.27-64.09.94-1.39,1.51-4.38,4.3-2.23,2.66,2.06,0,3.56-.92,4.94-12.68,18.93-25.45,37.8-38.18,56.7-.82,1.21-1.53,2.49-2.37,3.86,2.39,1.36,4.74.88,6.97.9,21.96.22,43.92.34,65.87.61,1.8.02,4.95-1.43,4.88,2.26-.06,3.33-2.97,1.94-4.63,1.94-25.12-.06-50.24-.23-75.36-.37-1.92-.01-3.85,0-5.72,0Z"/>
      <path class="cls-8" d="M174.59,203.05c-9.65-1.56-16.3-7.62-22-14.93-3.19-4.09-4.96-8.97-6.87-13.77-6.26-15.75-14.17-30.36-28.23-40.75-16.91-12.5-35.53-13.86-50.51-3.78-2.99,2.01-4.78,4.98-7.25,7.38,4.6-12.57,14.88-18.1,26.97-19.9,17.81-2.64,31.56,5.79,42.67,18.79,8.08,9.45,13.68,20.57,17.03,32.46,4.46,15.78,12.8,27.88,28.18,34.5Z"/>
      <path class="cls-8" d="M169.63,266.12c-7.44,2.99-14.9,2.14-22.44.33-15.67-3.75-31.51-5.5-47.32-1.31-10.59,2.81-20.17,7.88-27.32,16.53-8.42,10.19-11.13,21.66-7.05,34.46-7.19-9.81-6.18-20.51-2.21-30.84,5.87-15.24,18.67-22.77,33.74-26,16.83-3.61,33.41-.83,49.54,4.83,5.66,1.91,11.47,1.93,17.36,1.52,1.87-.13,3.9-.67,5.71.47Z"/>
      <path class="cls-8" d="M244.5,125.12c8.05-10.43,15.85-21.03,19.16-34.1,2.62-10.34,3.06-20.73-.34-30.97-4.2-12.64-12.96-20.49-25.82-23.84,14.41-1.26,30.13,10.97,33.92,26.92,3.83,16.15,0,30.97-8.99,44.64-4.22,6.41-8.97,12.4-14.55,17.7-6.75,6.41-13.47,12.84-18.22,20.99-.8-.78-.7-1.64-.24-2.54,1.66-4.89,4.98-8.56,8.8-11.85,2.1-2.31,4.55-4.29,6.28-6.94Z"/>
      <path class="cls-8" d="M231.74,315.1c-3.62,5.99-9.2,10.31-13.34,15.93-9.48,12.84-16.18,26.66-16.51,42.84-.39,19.41,10.9,37.82,30.72,40.26-10.15,2-18.2-2.63-25.19-8.92-13.41-12.08-14.75-27.6-10.67-43.97,2.91-11.64,9.28-21.55,17.49-30.26,4.54-4.77,9.23-9.4,13.94-14,.94-.92,1.6-2.73,3.55-1.87Z"/>
      <path class="cls-8" d="M309.52,277.01c3.5,9.47,6.15,19.25,11.04,28.19,6.14,11.2,14.48,20.05,25.69,26.4,13.29,7.52,32.81,8.69,46.18-5.56-5.84,11.78-16.53,16.24-28.48,16.83-18.63.91-31.5-9.55-41.48-24.11-2.6-3.79-5.18-7.75-6.09-12.44-2.38-7.52-5.27-14.88-6.84-22.65-.45-2.24-1.25-4.43-.02-6.65Z"/>
      <path class="cls-24" d="M290.51,192.14c9.89-3.97,19.49-2.45,28.78,1.87,10.71,4.98,21.5,9.69,33.25,11.59,16.84,2.72,32.71.6,46.53-10.28,8.47-6.66,12.09-15.93,13.48-26.29,2.75,11.31-5.17,28.33-16.66,35.34-13.18,8.03-27.41,9.56-42.27,6.2-8.95-2.02-17.75-4.86-25.63-9.49-11.7-6.87-23.84-10.75-37.48-8.94Z"/>
      <path class="cls-19" d="M407.72,155.97c-2.49,2.65-.24,5.36.23,7.83,1.79,9.41-2.38,18.35-10.83,23.02-15.7,8.67-31.25,6.9-47.25.6-16.21-6.38-33.05-9.29-50.46-5.28-10.15,2.34-18.38,8.05-25.86,15.01-.51-.36-.55-.76-.11-1.2,11.47-12.5,26.04-17.13,42.57-16.86,1.49.02,2.98-.02,4.47-.03,2.14-.99,4.09-.3,6.01.66,13.14,1.61,25.04,7.67,37.83,10.5,8.51.78,16.98,1.02,25.17-2.09h-.01c2.6-1.98,6.21-2.32,8.31-5.12.93-.58,1.5-1.54,2.36-2.2,1.17-.58,1.32-2.19,2.65-2.62,5.53-6.13,3.66-13.02,2-19.86-.34-1.4-.93-2.74-1.41-4.1-.55-1.18-.67-2.14,1.09-2.14,1.13,1.25,3.13,1.78,3.25,3.87Z"/>
      <path class="cls-11" d="M309.52,277.01c-.17,7.98,3.09,15.17,5.28,22.6.65,2.2,1.92,4.26,1.58,6.7-3.48-5.93-5.47-12.5-6.55-19.13-2.56-15.69-8.55-29.09-22.44-37.96,8.66,1.45,21.91,17.32,22.14,27.79Z"/>
      <path class="cls-29" d="M231.74,315.1c-4.99,3.34-8.53,8.22-12.95,12.17-1.46,1.3-2.47,3.15-4.54,3.71,2.05-3.93,5.41-6.76,8.62-9.59,7.66-6.75,13.34-14.7,16.32-24.51.48-.31.97-.31,1.45,0,.4.74.46,1.47-.06,2.19-1.82,5.96-4.14,11.65-8.84,16.03Z"/>
      <path class="cls-18" d="M169.63,266.12c-5.7-.42-11.39,1.34-17.13.02-2.08-.48-4.21-.58-5.94-2.01,8.16,1.16,16.34,2.27,24.44-.12,3.59-1.06,7.04-2.59,10.55-3.91-3.2,3.54-7.45,5-11.92,6.02Z"/>
      <path class="cls-3" d="M296.52,246.07c-7.36-1.48-14.49-4.21-22.17-3.86-1.76.08-3.72-.38-4.77,1.7-2.48.74-5.01,1.87-7.09-.83,11.71-3.17,23.08-2.5,34.03,2.99Z"/>
      <path class="cls-17" d="M226.56,172.09c-2.54-6.65-2.55-13.33-.16-20.02.42-.51.81-.49,1.17.06-1.56,6.59-1.17,13.28-1.02,19.96Z"/>
      <path class="cls-26" d="M389.49,188.14c-8.11,4.09-16.57,3.91-25.17,2.09,8.47.24,16.86-.4,25.17-2.09Z"/>
      <path class="cls-27" d="M223.54,39.2c2.5,1.72,5.31.39,7.95.81,1.7.27,3.59-.29,5.04,1.12-5.32-.17-10.63-.43-16.96.59,1.63-1.98,2.55-2.67,3.97-2.52Z"/>
      <path class="cls-30" d="M192.54,207.11c-2.96-2.49-7.06.57-9.99-2.06,4.79,0,9.58,0,14.92,0-1.57,1.7-3.1,2.19-4.92,2.06Z"/>
      <path class="cls-26" d="M398.49,183.14c-2.16,3.19-5.4,4.42-9.01,5,1.12-3.39,4.84-3.09,7.03-4.95.64-.7,1.3-.64,1.97-.05Z"/>
      <path class="cls-12" d="M240.43,297.03c-.41-.05-.83-.1-1.24-.16.46-4.62.92-9.23,1.38-13.85.35-.43.66-.38.92.09.04.65.08,1.3.13,1.95.54,3,.75,6-.11,8.99h0c-.98.76,0,2.24-1.08,2.97Z"/>
      <path class="cls-25" d="M227.58,152.14c-.39-.02-.78-.04-1.17-.06-.02-3.1,1.14-5.77,3.02-8.16.08.84.16,1.69.24,2.53-.11,2.11-1.18,3.87-2.09,5.69Z"/>
      <path class="cls-14" d="M262.49,243.08c2.2,1.67,4.69.87,7.09.83,1.36.33,2.91-.06,4.07,1.06-3.6,0-7.2.07-10.79-.09-.84-.04-3.37-.58-.36-1.8Z"/>
      <path class="cls-22" d="M269.37,200.96c.23.94.42,1.91,1.45,2.37-1.29,1.66-2.57,3.34-5.33,3.99.68-2.8,1.6-4.96,3.88-6.36Z"/>
      <path class="cls-21" d="M241.48,283.11c-.31-.06-.61-.09-.92-.09-.83-3.6-1.66-7.19-2.48-10.79,3.1,3.01,2.96,7.03,3.41,10.88Z"/>
      <path class="cls-5" d="M244.56,411.07c-1.39-1.82-3.54-.24-5.13-1.14,2.44-1.3,5.03-.66,7.84-1.14-.47,2-1.51,2.26-2.71,2.28Z"/>
      <path class="cls-15" d="M404.47,152.1c-.9.44-.87,1.35-1.09,2.14-.97-1.42-2.27-2.71-1.79-4.79,1.66.24,2.63,1.06,2.88,2.66Z"/>
      <path class="cls-22" d="M273.43,195.95c.04.4.07.8.11,1.2-1.14,1.57-2.19,3.24-4.2,3.85.84-2.11,2.16-3.83,4.09-5.05Z"/>
      <path class="cls-16" d="M326.49,179.73c-2-.22-4.01-.44-6.01-.66,2.15-1.13,4.29-2.14,6.01.66Z"/>
      <path class="cls-16" d="M398.49,183.14c-.66.02-1.32.03-1.98.05.26-2.35,2.43-2.28,3.9-3.09.32.22.45.46.37.72-.08.26-.17.4-.27.4-.21,1.13-1.04,1.6-2.02,1.92Z"/>
      <path class="cls-10" d="M235.52,266.07c-.93-1.2-1.85-2.4-2.85-3.7,2.22-.84,2.99.39,3.69,1.75-.38.6-.03,1.52-.83,1.95Z"/>
      <path class="cls-23" d="M396.6,315.14c-.6-1.23.24-2.82-.98-3.89-.06-.72.14-1.42.85-1.59.87-.21,1.08.49,1.05,1.19-.06,1.48.06,3.01-.92,4.29Z"/>
      <path class="cls-28" d="M265.53,209.42c-.07.95-.55,1.55-1.53,1.53-.52,0-1.03-.3-.8-.92.22-.58.53-1.31,1.02-1.55.66-.34,1.22.13,1.31.94Z"/>
      <path class="cls-20" d="M197.59,246.16c-.44-.42-.88-.85-1.31-1.27.42-.93.84-1.86,1.27-2.79,1-.16,1.55.11,1.24,1.25-.09,1.07-.32,2.07-1.19,2.81Z"/>
      <path class="cls-16" d="M400.51,181.22c-.03-.37-.06-.74-.09-1.12.13-1.46.99-2.02,2.38-1.91.02,1.6-.85,2.52-2.28,3.02Z"/>
      <path class="cls-21" d="M235.52,266.07c.28-.65.56-1.3.83-1.95.65.49,1.41.91,1.21,1.93-.85.44-.91,1.3-1.08,2.09-.32-.69-.64-1.38-.96-2.07Z"/>
      <path class="cls-2" d="M198.78,243.34c-.41-.42-.82-.83-1.24-1.25.37-.98.65-2.82,1.76-2.17,1.11.64.32,2.34-.53,3.42Z"/>
      <path class="cls-25" d="M244.5,125.12c-.85,3.44-3.45,5.29-6.28,6.94,1.35-2.98,3.87-4.91,6.28-6.94Z"/>
      <path class="cls-21" d="M241.5,294.06c.04-3,.07-5.99.11-8.99,1.38,3.01,1.55,6.01-.11,8.99Z"/>
      <path class="cls-21" d="M240.43,297.03c.28-1.02.07-2.22,1.08-2.98-.08,1.71.61,3.57-.93,5.01-.05-.68-.1-1.35-.15-2.03Z"/>
    </g>
  </g>
</svg>